<svg width="565" height="565" viewBox="0 0 565 565" fill="none" xmlns="http://www.w3.org/2000/svg">
<g clip-path="url(#clip0_235_3)">
<path d="M317.141 362.902H263.716C262.886 362.902 262.213 363.575 262.213 364.405V401.178C262.213 402.009 262.886 402.682 263.716 402.682H317.141C317.971 402.682 318.644 402.009 318.644 401.178V364.405C318.644 363.575 317.971 362.902 317.141 362.902Z" fill="#7F5AF0"/>
<path d="M290.428 402.682V362.902" stroke="#1A1A1A" stroke-width="4.21191"/>
<path d="M109.678 93.9883C101.06 93.9883 94.1231 100.927 94.1231 109.545V193.006H94.0586V242.93C94.0586 295.165 94.0716 294.104 93.3535 295.977C92.8672 297.245 91.7123 297.806 90.2578 297.48C89.8072 297.379 88.6682 296.832 87.7265 296.264C87.3786 296.054 87.0009 295.896 86.6484 295.693C85.9065 295.271 85.1491 294.885 84.3906 294.496C82.9833 293.773 81.5469 293.108 80.0761 292.504C79.0746 292.091 78.0774 291.665 77.0547 291.309C76.2666 291.036 75.4557 290.818 74.6523 290.578C73.5997 290.262 72.5446 289.961 71.4746 289.705C70.6938 289.519 69.9064 289.355 69.1133 289.199C68.0406 288.989 66.9623 288.815 65.8769 288.666C65.2777 288.581 64.699 288.441 64.0937 288.373C63.9067 288.352 63.5406 288.36 63.3301 288.342C61.5582 288.178 59.776 288.078 57.9844 288.078C56.5678 288.078 55.1801 288.189 53.789 288.289C53.1303 288.328 52.2174 288.319 51.7187 288.377C49.907 288.588 48.1324 288.885 46.3848 289.242C46.2006 289.28 46.0233 289.334 45.8398 289.373C44.2107 289.721 42.6115 290.134 41.041 290.609C40.7264 290.705 40.4197 290.817 40.1074 290.918C38.6223 291.395 37.164 291.927 35.7344 292.518C35.4983 292.616 35.2657 292.719 35.0312 292.82C33.5362 293.462 32.0736 294.166 30.6426 294.934C30.4714 295.025 30.299 295.114 30.1289 295.207C28.7005 295.992 27.3049 296.84 25.9433 297.75C25.7614 297.871 25.575 297.985 25.3945 298.107C24.1495 298.961 22.9382 299.872 21.7519 300.83C21.4844 301.045 21.205 301.244 20.9414 301.463C19.7127 302.491 18.5173 303.578 17.3554 304.721C17.1273 304.945 16.9002 305.169 16.6758 305.397C15.509 306.581 14.3968 307.802 13.3457 309.063C13.1311 309.321 12.9406 309.599 12.7304 309.861C11.7763 311.047 10.8597 312.254 10.0078 313.5C9.87103 313.701 9.7495 313.912 9.61522 314.115C8.72569 315.453 7.89198 316.82 7.12107 318.221C7.00918 318.425 6.90831 318.634 6.79881 318.84C6.03991 320.26 5.34087 321.707 4.70506 323.186C4.60336 323.422 4.50681 323.66 4.40818 323.898C3.79857 325.371 3.24996 326.867 2.76365 328.391C2.67985 328.653 2.59581 328.914 2.51561 329.178C2.04127 330.741 1.63409 332.327 1.291 333.938C1.2444 334.157 1.18867 334.372 1.14451 334.592C0.725178 336.677 0.377275 338.786 0.181625 340.94C0.0798854 342.059 0.047599 343.579 0.044899 345.18C0.040899 345.477 0 345.764 0 346.063C0 346.446 0.0492025 346.817 0.0566025 347.199C0.113102 349.894 0.276088 352.613 0.535118 354.315C1.28424 359.236 2.44704 363.531 4.19332 367.838C7.8514 376.859 13.7083 384.683 21.0332 390.742C21.0864 390.786 21.14 390.829 21.1933 390.873C24.0062 393.183 27.0315 395.231 30.2382 396.982C30.2971 397.015 30.355 397.048 30.414 397.08C32.013 397.946 33.6543 398.737 35.3359 399.451C35.4007 399.479 35.4663 399.504 35.5312 399.531C38.2938 400.694 41.1503 401.668 44.0996 402.393C44.6259 402.522 45.1284 402.585 45.6484 402.699C46.1394 402.806 46.6333 402.9 47.1289 402.994C48.6533 403.29 50.1719 403.522 51.666 403.686C51.9467 403.716 52.2278 403.743 52.5097 403.77C54.0064 403.909 55.5114 403.988 57.0078 403.996C57.3362 404.001 57.6546 404.045 57.9843 404.045C58.2945 404.038 58.6021 403.994 58.9121 403.983C60.088 403.946 61.286 403.858 62.4824 403.742C62.9259 403.698 63.3681 403.654 63.8105 403.6C64.4968 403.517 65.1638 403.487 65.8613 403.379C66.9859 403.205 68.0752 403.072 68.4179 403.059C68.4188 403.064 68.4189 403.09 68.4199 403.09C68.4491 403.09 68.8485 402.999 68.9785 402.975C70.7734 402.775 75.8562 401.374 78.7344 400.252C79.7046 399.874 81.0507 399.252 82.3828 398.619C82.5965 398.52 82.8185 398.444 83.0313 398.342C83.0932 398.313 83.155 398.283 83.2168 398.254C83.4449 398.143 83.6616 397.998 83.8887 397.885C85.2206 397.221 86.5775 396.53 87.6094 395.936C88.8004 395.249 89.657 394.839 90.3418 394.654C90.8506 394.566 91.2991 394.566 91.6875 394.658C91.8129 394.696 91.9459 394.709 92.0664 394.772C92.8907 395.198 93.2745 395.803 93.6856 397.326C94.0538 398.691 94.0586 398.947 94.0586 416.684V434.658H94.1231V454.613C94.1231 463.232 101.06 470.17 109.678 470.17H229.656C234.404 470.023 235.675 467.738 234.275 465.69C227.952 456.396 224.513 445.424 224.307 434.119L224.395 430.99C224.531 426.24 225.165 421.965 226.402 417.567C226.418 417.51 226.431 417.452 226.447 417.395C226.839 416.019 227.3 414.627 227.815 413.207C227.869 413.057 227.924 412.907 227.981 412.758C229.048 409.898 231.25 405.405 232.836 402.84C232.919 402.704 233 402.567 233.084 402.432C239.003 393.101 247.198 385.754 256.936 381C257.081 380.93 257.225 380.859 257.371 380.789C258.629 380.188 259.912 379.633 261.219 379.119C261.483 379.016 261.753 378.925 262.02 378.826C263.357 378.325 264.8 377.841 266.254 377.416C266.801 377.26 267.359 377.131 267.912 376.99C269.037 376.696 270.161 376.405 271.127 376.225C274.718 375.529 278.418 375.139 282.213 375.139C314.236 375.139 340.196 401.1 340.195 433.123C340.184 444.775 336.666 456.107 330.162 465.672C328.376 467.944 329.335 470.17 334.727 470.17H454.746C463.364 470.17 470.303 463.232 470.303 454.613V367.903C470.308 338.11 470.332 331.648 470.539 330.502C470.867 328.685 471.11 328.02 471.652 327.451C472.325 326.746 472.951 326.597 474.172 326.85C475.533 327.241 476.183 327.701 477.277 328.291C478.746 329.136 480.527 330.017 482.336 330.842C483 331.153 483.67 331.451 484.346 331.737C484.524 331.809 484.748 331.924 484.918 331.99C486.646 332.668 488.394 333.244 490.154 333.752C490.907 333.956 491.664 334.145 492.424 334.319C493.96 334.696 495.502 335.01 497.053 335.26C497.749 335.383 498.448 335.494 499.148 335.592C501.226 335.848 503.31 335.982 505.398 336.01C505.657 336.029 505.915 336.047 506.174 336.063C536.215 336.055 561.275 313.103 563.916 283.178C563.919 283.137 563.923 283.084 563.926 283.043C564.074 281.392 564.152 279.736 564.158 278.078C564.126 277.591 564.088 277.104 564.043 276.617C564.006 274.152 563.848 272.119 563.508 269.824C563.462 269.432 563.412 269.04 563.358 268.649C563.353 268.62 563.353 268.603 563.348 268.574C562.976 266.309 562.235 263.314 561.498 260.901C561.405 260.562 561.308 260.225 561.209 259.889L560.596 258.012H560.43C559.553 255.635 558.5 253.362 557.346 251.16V251.094L556.934 250.334C556.918 250.305 556.899 250.277 556.883 250.248C556.743 249.993 556.59 249.751 556.447 249.498C555.128 247.164 553.654 244.939 552.039 242.832C551.91 242.664 551.791 242.491 551.66 242.324C550.008 240.219 548.208 238.247 546.291 236.399C546.057 236.172 545.822 235.951 545.584 235.729C543.667 233.942 541.644 232.275 539.506 230.764C539.257 230.588 538.999 230.43 538.748 230.258C536.676 228.841 534.514 227.558 532.271 226.418C531.997 226.279 531.732 226.129 531.455 225.994C529.116 224.851 526.69 223.876 524.203 223.053C523.855 222.938 523.509 222.829 523.158 222.721C520.687 221.955 518.162 221.332 515.582 220.903C515.508 220.89 515.448 220.883 515.375 220.871C515.043 220.817 514.71 220.771 514.377 220.723C513.156 220.54 512.016 220.394 510.889 220.307C510.463 220.271 510.033 220.263 509.605 220.237C509.159 220.214 508.696 220.192 508.217 220.18C507.535 220.154 506.86 220.098 506.174 220.096C505.166 220.096 504.166 220.171 503.164 220.223C502.876 220.235 502.575 220.244 502.293 220.26C501.652 220.303 501.015 220.356 500.377 220.42C499.323 220.519 498.267 220.652 497.221 220.819C496.903 220.869 496.583 220.906 496.266 220.961C495.134 221.163 493.979 221.4 492.766 221.69C492.689 221.708 492.612 221.735 492.535 221.754C491.465 222.014 490.412 222.325 489.359 222.645C488.977 222.761 488.595 222.864 488.215 222.989C487.156 223.334 486.115 223.725 485.078 224.131C484.681 224.286 484.284 224.434 483.891 224.598C482.956 224.988 482.036 225.409 481.121 225.848C480.599 226.097 480.085 226.35 479.574 226.614C478.773 227.028 477.982 227.462 477.199 227.914C476.945 228.062 476.672 228.19 476.422 228.34C474.877 229.27 474.341 229.462 473.289 229.463C472.869 229.464 472.595 229.407 472.272 229.254C470.583 227.513 470.303 226.564 470.303 224.354V109.545C470.303 100.927 463.364 93.9883 454.746 93.9883H109.678Z" fill="white"/>
<path d="M270.186 171.737H257.886C251.244 171.737 245.86 177.121 245.86 183.763V270.053C245.86 276.695 251.244 282.079 257.886 282.079H270.186C276.828 282.079 282.213 276.695 282.213 270.053V183.763C282.213 177.121 276.828 171.737 270.186 171.737Z" fill="#7F5AF0"/>
<path d="M374.114 171.737H361.813C355.171 171.737 349.787 177.121 349.787 183.763V270.053C349.787 276.695 355.171 282.079 361.813 282.079H374.114C380.756 282.079 386.14 276.695 386.14 270.053V183.763C386.14 177.121 380.756 171.737 374.114 171.737Z" fill="#7F5AF0"/>
</g>
<defs>
<clipPath id="clip0_235_3">
<rect width="564.158" height="564.158" fill="white"/>
</clipPath>
</defs>
</svg>
